<svg version="1.1" id="Layer_1" xmlns="http://www.w3.org/2000/svg" xmlns:xlink="http://www.w3.org/1999/xlink" x="0px" y="0px"
	 width="100%" viewBox="0 0 854 854" enable-background="new 0 0 854 854" xml:space="preserve">
<path fill="transparent" opacity="1.000000" stroke="none" 
	d="
M855.000000,227.000000 
	C855.000000,436.666595 855.000000,645.833191 855.000000,854.999817 
	C570.333557,854.999878 285.667084,854.999878 1.000464,854.999939 
	C1.000309,570.333679 1.000309,285.667328 1.000154,1.000731 
	C285.666229,1.000487 570.332458,1.000487 854.999329,1.000244 
	C855.000000,76.166664 855.000000,151.333328 855.000000,227.000000 
M109.455276,232.577835 
	C109.469254,232.200851 109.483223,231.823883 109.751266,231.168304 
	C109.751266,231.168304 109.872841,230.811401 110.507355,230.799240 
	C110.793846,230.104172 111.080338,229.409119 111.692421,228.309082 
	C111.753151,228.146881 111.813881,227.984665 112.506676,227.805130 
	C112.790596,227.107635 113.074509,226.410141 113.685616,225.301041 
	C113.745735,225.136398 113.805855,224.971756 114.496941,224.779648 
	C114.792885,224.092346 115.088837,223.405045 115.703781,222.311691 
	C115.759476,222.148819 115.815170,221.985947 116.534935,221.764236 
	C117.093536,220.832367 117.652138,219.900497 118.595695,218.754486 
	C118.822479,218.547089 118.956596,218.291153 119.603432,217.746292 
	C120.109596,216.824417 120.615761,215.902542 121.576912,214.551712 
	C122.377945,213.348785 123.178978,212.145859 124.588242,210.712234 
	C125.113564,209.799728 125.638893,208.887238 126.578743,207.611984 
	C126.822189,206.945358 127.065636,206.278748 127.847458,205.091232 
	C130.319626,197.120300 131.060043,189.396469 124.303627,182.159653 
	C123.206696,181.214111 122.109756,180.268585 120.827171,178.604675 
	C116.216133,176.068314 111.753204,172.978775 105.495552,174.505814 
	C105.032860,174.767838 104.570175,175.029877 103.391426,175.190079 
	C102.942696,175.341522 102.493958,175.492981 101.386993,175.556992 
	C99.595329,176.705475 97.803665,177.853943 95.442192,179.249710 
	C94.629524,180.171982 93.816856,181.094254 92.406120,182.239319 
	C91.903671,183.149109 91.401222,184.058884 90.465225,185.193634 
	C90.198753,185.412170 90.046829,185.692734 89.402168,186.288452 
	C88.575974,187.860031 87.749786,189.431595 86.510353,191.271606 
	C86.255417,191.496902 86.087685,191.774841 85.417206,192.328873 
	C84.910721,193.224960 84.404228,194.121063 83.485664,195.275009 
	C83.236145,195.500641 83.076912,195.778076 82.439873,196.318222 
	C82.175934,196.982178 81.911995,197.646149 81.196251,198.876846 
	C80.571800,199.907547 79.947350,200.938248 78.823181,201.947128 
	C78.696037,202.377869 78.568886,202.808624 77.986092,203.766296 
	C77.887444,203.976517 77.788795,204.186722 77.098152,204.518127 
	C76.542206,205.778854 75.986259,207.039581 74.985970,208.795593 
	C74.888756,208.994965 74.791542,209.194321 74.079468,209.511002 
	C72.884209,211.754745 71.688957,213.998489 70.275688,216.412094 
	C70.275688,216.412094 70.208336,216.680145 69.576317,216.809784 
	C68.883835,218.299103 68.191345,219.788406 67.297127,221.425827 
	C67.297127,221.425827 67.240211,221.669540 66.598190,221.766571 
	C66.137238,222.884949 65.676277,224.003311 64.809372,225.537964 
	C64.313782,226.354156 63.818195,227.170349 62.624207,228.198013 
	C60.917286,231.903015 59.210365,235.608017 57.337719,239.463013 
	C57.337719,239.463013 57.311317,239.684982 56.798203,239.697678 
	C56.442654,240.247787 56.087101,240.797913 55.197857,241.806473 
	C55.082104,242.647583 54.966347,243.488678 54.510868,244.830292 
	C54.381851,245.211853 54.252831,245.593399 53.429077,246.119827 
	C51.178543,250.878571 48.928009,255.637329 46.143421,260.864685 
	C36.831303,281.003204 28.921721,301.711273 23.821552,323.283875 
	C19.513311,341.506836 16.016226,359.970917 13.233732,378.489563 
	C11.023008,393.202850 9.665281,408.143372 9.344931,423.013550 
	C9.027540,437.746277 10.042962,452.554321 11.283953,467.260956 
	C12.522743,481.941620 14.030741,496.674774 16.731403,511.140228 
	C21.464520,536.492004 28.154232,561.487793 38.598644,585.074097 
	C48.213066,606.786133 58.964218,628.079956 70.551239,648.810974 
	C83.968575,672.816650 101.122536,694.350464 119.852898,714.440857 
	C138.221985,734.143799 158.216141,752.065552 180.077133,768.015930 
	C199.640564,782.289917 220.385574,794.398071 241.738098,805.602783 
	C246.903900,808.313477 252.577606,809.255554 258.124390,806.821777 
	C265.717896,803.489746 270.750031,798.090881 271.941559,789.364258 
	C273.439392,778.394409 267.428101,771.616333 259.291199,766.398926 
	C251.888748,761.652466 243.807098,757.979431 236.153275,753.608276 
	C213.700912,740.785889 193.063599,725.444031 174.177094,707.822144 
	C164.832382,699.103088 155.883438,689.943909 147.031616,680.718872 
	C141.985001,675.459473 136.961136,670.032043 132.856232,664.043396 
	C121.777367,647.880615 110.595947,631.735107 100.558426,614.924072 
	C85.402405,589.540283 74.506958,562.209656 66.366920,533.783142 
	C58.796196,507.344757 54.063671,480.340179 52.796852,452.951508 
	C51.622902,427.570557 52.454777,402.162567 56.430820,376.888977 
	C60.397739,351.673340 66.178772,327.015808 75.149445,303.113831 
	C77.532478,296.764374 79.788963,290.367432 82.573509,283.478790 
	C82.780777,282.826172 82.988045,282.173523 83.745720,281.106049 
	C84.178833,280.069946 84.611954,279.033844 85.295746,277.821564 
	C85.295746,277.821564 85.282890,277.515411 85.814514,277.065125 
	C89.325180,269.279175 92.835846,261.493225 96.680779,253.316437 
	C96.750999,253.160049 96.821220,253.003677 97.566910,252.831253 
	C98.827866,250.123566 100.088821,247.415878 101.679810,244.310257 
	C101.747864,244.151947 101.815926,243.993622 102.525917,243.836823 
	C102.797722,243.127594 103.069519,242.418350 103.673012,241.308762 
	C103.741272,241.149475 103.809540,240.990173 104.536346,240.819336 
	C105.033653,239.883163 105.530960,238.947006 106.512917,237.616455 
	C106.614395,237.036835 106.715881,236.457230 106.895653,235.935196 
	C106.895653,235.935196 106.877396,235.839752 107.535583,235.811676 
	C108.033478,234.873703 108.531372,233.935715 109.455276,232.577835 
M841.480408,447.460083 
	C841.126587,429.833893 841.554199,412.148224 840.218018,394.596802 
	C838.604919,373.406647 834.607971,352.513031 829.538574,331.809753 
	C822.380066,302.574829 812.225403,274.465302 798.780273,247.604904 
	C792.385803,234.830276 785.051941,222.495407 777.636780,210.268753 
	C763.713562,187.311279 747.154297,166.283081 728.764404,146.777405 
	C712.212585,129.221222 694.306458,113.131844 674.784302,98.823761 
	C650.953796,81.358002 626.105774,65.694221 598.930603,53.958179 
	C589.276794,49.789024 578.255981,54.228832 573.675354,63.695675 
	C568.037537,75.347427 573.110596,87.376457 585.796814,93.842941 
	C597.928467,100.026741 610.066650,106.288475 621.695679,113.349678 
	C650.526123,130.855637 676.459290,151.922531 699.393250,176.809082 
	C717.283386,196.222382 733.117249,217.010086 746.740356,239.601349 
	C762.731812,266.119720 774.956177,294.275665 783.981018,323.816833 
	C791.283936,347.721832 796.239746,372.110657 798.127258,397.118073 
	C799.489075,415.160614 801.433411,433.135437 799.102234,451.249176 
	C796.902405,468.341980 795.752319,485.603088 792.820435,502.561951 
	C785.280457,546.174622 769.329590,586.759094 746.524719,624.633911 
	C734.758545,644.175476 721.887024,663.016113 705.910950,679.378601 
	C691.064209,694.584473 676.238770,709.962891 660.049316,723.664734 
	C642.819641,738.247131 623.603821,750.262756 603.634705,761.068787 
	C579.224915,774.278015 553.666809,784.419128 527.076050,792.039734 
	C490.425446,802.543274 452.962036,806.970398 414.870453,806.131775 
	C409.908569,806.022583 404.951904,805.517944 400.001007,805.099731 
	C391.587128,804.389038 383.041412,804.310974 374.797485,802.703430 
	C355.743958,798.988220 336.822510,794.585144 317.879120,790.320435 
	C309.174591,788.360718 299.028625,792.721985 294.949432,800.509583 
	C290.187592,809.600281 291.707062,820.568237 299.208496,826.413757 
	C302.250702,828.784485 306.219025,830.243591 309.990387,831.357605 
	C339.537170,840.085205 369.733276,846.059448 400.464417,847.152161 
	C424.658173,848.012512 449.044800,847.117126 473.170776,845.004089 
	C491.072418,843.436218 508.754578,838.955383 526.424561,835.248047 
	C550.772766,830.139648 574.031250,821.489258 596.578369,811.205627 
	C624.016235,798.691345 650.414673,784.118835 674.084839,765.256470 
	C689.515808,752.959900 704.880188,740.434326 719.065125,726.757141 
	C736.400696,710.041992 752.319885,691.859802 765.393799,671.483521 
	C775.087952,656.374756 785.011475,641.348877 793.621033,625.622742 
	C808.464233,598.510132 819.471130,569.742615 827.495850,539.868652 
	C835.542419,509.913208 840.345825,479.457764 841.480408,447.460083 
M224.176041,62.805981 
	C190.910965,81.639137 160.132233,103.786018 133.235565,131.096786 
	C125.065018,139.393127 125.044762,151.058243 133.125183,159.753433 
	C140.524551,167.715775 154.510239,168.542938 162.571457,161.448288 
	C166.308594,158.159256 169.818192,154.596863 173.684341,151.471863 
	C187.356445,140.420731 200.639893,128.798752 214.981033,118.683960 
	C245.489090,97.166656 279.081604,81.696846 314.654480,70.441498 
	C349.705994,59.351112 385.684998,54.116066 422.344757,53.346691 
	C431.288086,53.159004 440.255219,53.915508 449.206146,54.346828 
	C454.666809,54.609959 460.159729,54.772724 465.565094,55.513664 
	C485.931824,58.305443 506.253357,61.302849 526.061829,67.154282 
	C529.691162,68.226395 534.085266,67.816185 537.885254,66.986244 
	C547.356079,64.917793 553.708008,56.609570 553.738586,47.221966 
	C553.775024,36.039444 548.020020,28.506195 536.829468,25.688019 
	C527.013184,23.215940 517.196960,20.524635 507.219208,18.959871 
	C488.105042,15.962287 468.938324,12.308638 449.680603,11.445900 
	C419.681580,10.101957 389.663727,11.021799 359.805695,15.945251 
	C334.296875,20.151543 309.247192,26.070126 285.221771,35.256252 
	C264.633453,43.128220 244.926498,53.305435 224.176041,62.805981 
z"/>
<path fill="#CA9EF0" opacity="1.000000" stroke="none" 
	d="
M841.482910,447.951843 
	C840.345825,479.457764 835.542419,509.913208 827.495850,539.868652 
	C819.471130,569.742615 808.464233,598.510132 793.621033,625.622742 
	C785.011475,641.348877 775.087952,656.374756 765.393799,671.483521 
	C752.319885,691.859802 736.400696,710.041992 719.065125,726.757141 
	C704.880188,740.434326 689.515808,752.959900 674.084839,765.256470 
	C650.414673,784.118835 624.016235,798.691345 596.578369,811.205627 
	C574.031250,821.489258 550.772766,830.139648 526.424561,835.248047 
	C508.754578,838.955383 491.072418,843.436218 473.170776,845.004089 
	C449.044800,847.117126 424.658173,848.012512 400.464417,847.152161 
	C369.733276,846.059448 339.537170,840.085205 309.990387,831.357605 
	C306.219025,830.243591 302.250702,828.784485 299.208496,826.413757 
	C291.707062,820.568237 290.187592,809.600281 294.949432,800.509583 
	C299.028625,792.721985 309.174591,788.360718 317.879120,790.320435 
	C336.822510,794.585144 355.743958,798.988220 374.797485,802.703430 
	C383.041412,804.310974 391.587128,804.389038 400.001007,805.099731 
	C404.951904,805.517944 409.908569,806.022583 414.870453,806.131775 
	C452.962036,806.970398 490.425446,802.543274 527.076050,792.039734 
	C553.666809,784.419128 579.224915,774.278015 603.634705,761.068787 
	C623.603821,750.262756 642.819641,738.247131 660.049316,723.664734 
	C676.238770,709.962891 691.064209,694.584473 705.910950,679.378601 
	C721.887024,663.016113 734.758545,644.175476 746.524719,624.633911 
	C769.329590,586.759094 785.280457,546.174622 792.820435,502.561951 
	C795.752319,485.603088 796.902405,468.341980 799.102234,451.249176 
	C801.433411,433.135437 799.489075,415.160614 798.127258,397.118073 
	C796.239746,372.110657 791.283936,347.721832 783.981018,323.816833 
	C774.956177,294.275665 762.731812,266.119720 746.740356,239.601349 
	C733.117249,217.010086 717.283386,196.222382 699.393250,176.809082 
	C676.459290,151.922531 650.526123,130.855637 621.695679,113.349678 
	C610.066650,106.288475 597.928467,100.026741 585.796814,93.842941 
	C573.110596,87.376457 568.037537,75.347427 573.675354,63.695675 
	C578.255981,54.228832 589.276794,49.789024 598.930603,53.958179 
	C626.105774,65.694221 650.953796,81.358002 674.784302,98.823761 
	C694.306458,113.131844 712.212585,129.221222 728.764404,146.777405 
	C747.154297,166.283081 763.713562,187.311279 777.636780,210.268753 
	C785.051941,222.495407 792.385803,234.830276 798.780273,247.604904 
	C812.225403,274.465302 822.380066,302.574829 829.538574,331.809753 
	C834.607971,352.513031 838.604919,373.406647 840.218018,394.596802 
	C841.554199,412.148224 841.126587,429.833893 841.482910,447.951843 
z"/>
<path fill="#DBBEFE" opacity="1.000000" stroke="none" 
	d="
M74.694328,209.393661 
	C74.791542,209.194321 74.888756,208.994965 75.568520,208.694260 
	C76.664093,207.194260 77.177116,205.795609 77.690140,204.396942 
	C77.788795,204.186722 77.887444,203.976517 78.481583,203.686096 
	C79.396645,203.298569 79.816223,202.991257 80.235809,202.683945 
	C79.931511,202.445602 79.627213,202.207275 79.322906,201.968948 
	C79.947350,200.938248 80.571800,199.907547 81.661331,198.677185 
	C82.417000,198.313660 82.707581,198.149811 83.318954,197.889282 
	C84.434692,196.535629 85.229637,195.278625 86.341492,193.913727 
	C87.415985,192.541229 88.173569,191.276611 89.098656,189.778992 
	C89.510384,189.029633 89.754601,188.513275 90.317413,187.893555 
	C91.433838,186.535400 92.231682,185.280579 93.343269,183.920471 
	C95.109474,182.210999 96.561928,180.606842 98.327927,178.828110 
	C99.753357,178.167862 100.865242,177.682190 102.365067,177.307907 
	C108.158730,176.048386 113.210045,176.894257 118.067406,179.607498 
	C118.775360,180.002945 120.017731,179.441650 121.012817,179.323059 
	C122.109756,180.268585 123.206696,181.214111 124.408203,182.789825 
	C125.223068,185.281326 125.933365,187.142654 126.558144,189.289948 
	C126.910782,190.221603 127.348938,190.867310 127.746803,191.920532 
	C127.745049,195.070389 127.783585,197.812729 127.548958,200.780106 
	C126.179504,203.666275 125.083214,206.327423 123.665833,209.094788 
	C121.895607,211.466614 120.446472,213.732239 118.679855,216.102875 
	C117.594055,217.469376 116.825737,218.730850 115.920914,220.285339 
	C115.813225,220.993271 115.842041,221.408173 115.870865,221.823090 
	C115.815170,221.985947 115.759476,222.148819 115.230080,222.515289 
	C114.459579,223.414978 114.162773,224.111038 113.865967,224.807114 
	C113.805855,224.971756 113.745735,225.136398 113.209457,225.516098 
	C112.447067,226.428253 112.160843,227.125336 111.874619,227.822433 
	C111.813881,227.984665 111.753151,228.146881 111.217346,228.517746 
	C110.452461,229.421402 110.162651,230.116409 109.872849,230.811401 
	C109.872841,230.811401 109.751266,231.168304 109.281647,231.192215 
	C108.225655,232.141022 107.639275,233.065918 106.922165,234.288300 
	C106.820084,235.003784 106.848740,235.421768 106.877396,235.839752 
	C106.877396,235.839752 106.895653,235.935196 106.510979,235.865967 
	C105.436073,236.862076 104.745850,237.927414 103.922775,239.287903 
	C103.819221,239.998993 103.848511,240.414932 103.877800,240.830887 
	C103.809540,240.990173 103.741272,241.149475 103.195274,241.521790 
	C102.439690,242.434982 102.161835,243.135147 101.883987,243.835312 
	C101.815926,243.993622 101.747864,244.151947 101.176804,244.536606 
	C99.413017,247.457733 98.152222,250.152512 96.891434,252.847305 
	C96.821220,253.003677 96.750999,253.160049 96.177872,253.538727 
	C92.734482,259.393524 89.794006,265.026031 86.601700,270.818542 
	C86.135803,271.649567 85.921738,272.320587 85.538834,273.307007 
	C85.197014,274.313690 85.024033,275.004944 84.571472,275.875275 
	C83.886353,277.031921 83.480812,278.009491 82.990250,279.156250 
	C82.905235,279.325409 82.833771,279.697266 82.550652,279.863770 
	C81.731468,281.373199 81.195404,282.716125 80.491440,284.361511 
	C80.169540,285.335114 80.015556,286.006195 79.608955,286.835510 
	C79.127373,287.660858 78.898399,288.328033 78.502380,289.307495 
	C78.178070,290.306946 78.020821,290.994049 77.609970,291.838074 
	C77.115952,292.662689 76.875534,293.330414 76.471420,294.309204 
	C76.159203,295.304291 76.010666,295.988312 75.572800,296.861023 
	C74.588333,298.702057 73.893188,300.354401 73.103500,302.361694 
	C70.460854,310.074799 67.667671,317.358551 65.408188,324.804260 
	C56.829350,353.074280 51.841896,382.070129 50.460472,411.504669 
	C49.370197,434.735596 50.057095,458.016663 53.139400,481.196289 
	C56.354134,505.371704 61.981331,528.952271 69.596519,552.036377 
	C77.280426,575.328796 87.170082,597.778687 99.911049,618.736084 
	C109.911530,635.185669 120.132339,651.718384 132.214584,666.626221 
	C145.140457,682.575073 159.757416,697.309692 174.774460,711.357483 
	C186.607101,722.426392 199.652039,732.412292 213.099350,741.484680 
	C227.686829,751.326172 243.329544,759.611755 258.577454,768.463257 
	C268.428955,774.182190 272.765686,786.384155 267.660858,795.390564 
	C262.751892,804.051331 252.908096,809.227600 241.152969,802.489929 
	C227.593384,794.718079 213.934937,787.112000 200.505463,779.121277 
	C180.275696,767.084229 161.828232,752.480530 144.909576,736.306580 
	C129.803360,721.865112 115.952156,706.024902 102.358444,690.109009 
	C85.221123,670.044250 70.861946,647.952087 59.311016,624.212280 
	C51.163136,607.466492 43.708050,590.369507 36.408562,573.231323 
	C32.967030,565.151123 30.459517,556.655334 27.820503,548.256226 
	C25.450039,540.711731 23.340952,533.077026 21.378971,525.414978 
	C20.026848,520.134460 18.820499,514.780762 18.082417,509.386749 
	C16.670561,499.068787 15.495024,488.712738 14.487920,478.346619 
	C13.367136,466.810364 12.052731,455.258881 11.730119,443.688751 
	C11.415649,432.410675 12.158239,421.097137 12.596222,409.805359 
	C13.353302,390.286926 15.321792,370.943390 19.127493,351.714447 
	C23.367085,330.293213 29.470329,309.492432 36.995468,289.054352 
	C40.313709,280.042084 43.677917,271.046753 47.301544,261.865570 
	C49.762489,256.449921 51.943150,251.212448 54.123810,245.974960 
	C54.252831,245.593399 54.381851,245.211853 54.917542,244.608154 
	C55.591251,244.013702 55.858292,243.641403 56.428822,243.073608 
	C56.925320,241.813736 57.118320,240.749359 57.311317,239.684982 
	C57.311317,239.684982 57.337719,239.463013 57.743004,239.550903 
	C60.227993,235.959564 62.308346,232.280685 64.343063,228.576752 
	C64.347229,228.569183 63.677540,228.191406 63.322601,227.986542 
	C63.818195,227.170349 64.313782,226.354156 65.381516,225.352707 
	C66.382515,224.001480 66.811356,222.835510 67.240204,221.669540 
	C67.240211,221.669540 67.297127,221.425827 67.739380,221.508087 
	C68.857201,219.953598 69.532768,218.316879 70.208336,216.680145 
	C70.208336,216.680145 70.275688,216.412094 70.709923,216.492142 
	C72.327553,214.179352 73.510941,211.786499 74.694328,209.393661 
z"/>
<path fill="#8B7D9B" opacity="1.000000" stroke="none" 
	d="
M79.861580,286.677307 
	C80.015556,286.006195 80.169540,285.335114 80.665993,284.344025 
	C81.373489,284.013458 81.738518,284.002869 82.103546,283.992279 
	C79.788963,290.367432 77.532478,296.764374 75.149445,303.113831 
	C66.178772,327.015808 60.397739,351.673340 56.430820,376.888977 
	C52.454777,402.162567 51.622902,427.570557 52.796852,452.951508 
	C54.063671,480.340179 58.796196,507.344757 66.366920,533.783142 
	C74.506958,562.209656 85.402405,589.540283 100.558426,614.924072 
	C110.595947,631.735107 121.777367,647.880615 132.856232,664.043396 
	C136.961136,670.032043 141.985001,675.459473 147.031616,680.718872 
	C155.883438,689.943909 164.832382,699.103088 174.177094,707.822144 
	C193.063599,725.444031 213.700912,740.785889 236.153275,753.608276 
	C243.807098,757.979431 251.888748,761.652466 259.291199,766.398926 
	C267.428101,771.616333 273.439392,778.394409 271.941559,789.364258 
	C270.750031,798.090881 265.717896,803.489746 258.124390,806.821777 
	C252.577606,809.255554 246.903900,808.313477 241.738098,805.602783 
	C220.385574,794.398071 199.640564,782.289917 180.077133,768.015930 
	C158.216141,752.065552 138.221985,734.143799 119.852898,714.440857 
	C101.122536,694.350464 83.968575,672.816650 70.551239,648.810974 
	C58.964218,628.079956 48.213066,606.786133 38.598644,585.074097 
	C28.154232,561.487793 21.464520,536.492004 16.731403,511.140228 
	C14.030741,496.674774 12.522743,481.941620 11.283953,467.260956 
	C10.042962,452.554321 9.027540,437.746277 9.344931,423.013550 
	C9.665281,408.143372 11.023008,393.202850 13.233732,378.489563 
	C16.016226,359.970917 19.513311,341.506836 23.821552,323.283875 
	C28.921721,301.711273 36.831303,281.003204 46.504696,261.040894 
	C46.917736,261.492676 46.969498,261.768188 47.021255,262.043732 
	C43.677917,271.046753 40.313709,280.042084 36.995468,289.054352 
	C29.470329,309.492432 23.367085,330.293213 19.127493,351.714447 
	C15.321792,370.943390 13.353302,390.286926 12.596222,409.805359 
	C12.158239,421.097137 11.415649,432.410675 11.730119,443.688751 
	C12.052731,455.258881 13.367136,466.810364 14.487920,478.346619 
	C15.495024,488.712738 16.670561,499.068787 18.082417,509.386749 
	C18.820499,514.780762 20.026848,520.134460 21.378971,525.414978 
	C23.340952,533.077026 25.450039,540.711731 27.820503,548.256226 
	C30.459517,556.655334 32.967030,565.151123 36.408562,573.231323 
	C43.708050,590.369507 51.163136,607.466492 59.311016,624.212280 
	C70.861946,647.952087 85.221123,670.044250 102.358444,690.109009 
	C115.952156,706.024902 129.803360,721.865112 144.909576,736.306580 
	C161.828232,752.480530 180.275696,767.084229 200.505463,779.121277 
	C213.934937,787.112000 227.593384,794.718079 241.152969,802.489929 
	C252.908096,809.227600 262.751892,804.051331 267.660858,795.390564 
	C272.765686,786.384155 268.428955,774.182190 258.577454,768.463257 
	C243.329544,759.611755 227.686829,751.326172 213.099350,741.484680 
	C199.652039,732.412292 186.607101,722.426392 174.774460,711.357483 
	C159.757416,697.309692 145.140457,682.575073 132.214584,666.626221 
	C120.132339,651.718384 109.911530,635.185669 99.911049,618.736084 
	C87.170082,597.778687 77.280426,575.328796 69.596519,552.036377 
	C61.981331,528.952271 56.354134,505.371704 53.139400,481.196289 
	C50.057095,458.016663 49.370197,434.735596 50.460472,411.504669 
	C51.841896,382.070129 56.829350,353.074280 65.408188,324.804260 
	C67.667671,317.358551 70.460854,310.074799 73.425522,302.264771 
	C74.515434,300.099365 75.188782,298.385834 75.862129,296.672302 
	C76.010666,295.988312 76.159203,295.304291 76.718323,294.185974 
	C77.373802,293.061462 77.618683,292.371307 77.863571,291.681152 
	C78.020821,290.994049 78.178070,290.306946 78.744530,289.181030 
	C79.389687,288.053925 79.625641,287.365601 79.861580,286.677307 
z"/>
<path fill="#9990A7" opacity="1.000000" stroke="none" 
	d="
M224.502899,62.634556 
	C244.926498,53.305435 264.633453,43.128220 285.221771,35.256252 
	C309.247192,26.070126 334.296875,20.151543 359.805695,15.945251 
	C389.663727,11.021799 419.681580,10.101957 449.680603,11.445900 
	C468.938324,12.308638 488.105042,15.962287 507.219208,18.959871 
	C517.196960,20.524635 527.013184,23.215940 536.829468,25.688019 
	C548.020020,28.506195 553.775024,36.039444 553.738586,47.221966 
	C553.708008,56.609570 547.356079,64.917793 537.885254,66.986244 
	C534.085266,67.816185 529.691162,68.226395 526.061829,67.154282 
	C506.253357,61.302849 485.931824,58.305443 465.565094,55.513664 
	C460.159729,54.772724 454.666809,54.609959 449.206146,54.346828 
	C440.255219,53.915508 431.288086,53.159004 422.344757,53.346691 
	C385.684998,54.116066 349.705994,59.351112 314.654480,70.441498 
	C279.081604,81.696846 245.489090,97.166656 214.981033,118.683960 
	C200.639893,128.798752 187.356445,140.420731 173.684341,151.471863 
	C169.818192,154.596863 166.308594,158.159256 162.571457,161.448288 
	C154.510239,168.542938 140.524551,167.715775 133.125183,159.753433 
	C125.044762,151.058243 125.065018,139.393127 133.235565,131.096786 
	C160.132233,103.786018 190.910965,81.639137 224.502899,62.634556 
M530.609375,65.232841 
	C542.699158,66.287727 550.173218,57.500717 551.226807,50.336235 
	C552.852600,39.280594 547.918518,31.386440 537.159729,28.312569 
	C508.781494,20.204641 479.757324,15.279284 450.363434,13.915442 
	C418.969055,12.458778 387.524780,13.465261 356.417572,18.861378 
	C318.339386,25.466743 281.778870,36.964695 246.945557,53.722649 
	C222.443985,65.510124 199.000565,79.206329 177.617630,96.036079 
	C163.131058,107.437943 149.136124,119.522972 135.546524,131.984283 
	C127.241768,139.599548 127.559242,151.465073 135.164032,158.775696 
	C140.924469,164.313309 154.260071,165.992203 162.271408,158.622299 
	C168.995651,152.436447 175.763107,146.293060 182.646469,140.285583 
	C200.509125,124.695900 220.106293,111.521751 240.571960,99.671921 
	C263.863495,86.185890 288.684296,76.152397 314.308289,68.004608 
	C348.310364,57.192783 383.233154,52.107067 418.794952,51.184925 
	C427.918640,50.948341 437.125977,51.255630 446.197144,52.226433 
	C465.819244,54.326416 485.414795,56.763546 504.945557,59.586174 
	C513.297913,60.793270 521.461304,63.307671 530.609375,65.232841 
z"/>
<path fill="#8B7D9B" opacity="1.000000" stroke="none" 
	d="
M86.853546,270.658539 
	C89.794006,265.026031 92.734482,259.393524 96.010742,253.734131 
	C92.835846,261.493225 89.325180,269.279175 85.434845,276.836578 
	C84.987129,276.304077 84.919090,276.000122 84.851059,275.696198 
	C85.024033,275.004944 85.197014,274.313690 85.776474,273.175415 
	C86.406471,272.038452 86.630013,271.348511 86.853546,270.658539 
z"/>
<path fill="#9182A3" opacity="1.000000" stroke="none" 
	d="
M120.919998,178.963867 
	C120.017731,179.441650 118.775360,180.002945 118.067406,179.607498 
	C113.210045,176.894257 108.158730,176.048386 102.368408,177.120544 
	C102.004295,176.429337 102.024757,176.036880 102.045227,175.644424 
	C102.493958,175.492981 102.942696,175.341522 103.911407,175.391449 
	C104.960388,175.275116 105.489380,174.957428 106.018372,174.639740 
	C111.753204,172.978775 116.216133,176.068314 120.919998,178.963867 
z"/>
<path fill="#8B7D9B" opacity="1.000000" stroke="none" 
	d="
M126.643661,189.003983 
	C125.933365,187.142654 125.223068,185.281326 124.582191,183.056305 
	C131.060043,189.396469 130.319626,197.120300 127.526787,204.926407 
	C127.411453,203.359421 127.616783,201.957245 127.822113,200.555084 
	C127.783585,197.812729 127.745049,195.070389 127.773422,191.605026 
	C127.441444,190.256012 127.042549,189.629990 126.643661,189.003983 
z"/>
<path fill="#9182A3" opacity="1.000000" stroke="none" 
	d="
M47.301544,261.865570 
	C46.969498,261.768188 46.917736,261.492676 46.771721,260.806610 
	C48.928009,255.637329 51.178543,250.878571 53.776443,246.047394 
	C51.943150,251.212448 49.762489,256.449921 47.301544,261.865570 
z"/>
<path fill="#9182A3" opacity="1.000000" stroke="none" 
	d="
M62.973404,228.092285 
	C63.677540,228.191406 64.347229,228.569183 64.343063,228.576752 
	C62.308346,232.280685 60.227993,235.959564 57.825867,239.475906 
	C59.210365,235.608017 60.917286,231.903015 62.973404,228.092285 
z"/>
<path fill="#8B7D9B" opacity="1.000000" stroke="none" 
	d="
M97.229172,252.839279 
	C98.152222,250.152512 99.413017,247.457733 101.011795,244.735565 
	C100.088821,247.415878 98.827866,250.123566 97.229172,252.839279 
z"/>
<path fill="#9182A3" opacity="1.000000" stroke="none" 
	d="
M118.997330,215.997864 
	C120.446472,213.732239 121.895607,211.466614 123.694946,209.116364 
	C124.045143,209.031723 124.103508,209.074432 124.069641,209.384750 
	C124.017189,210.111023 123.998596,210.526978 123.980003,210.942932 
	C123.178978,212.145859 122.377945,213.348785 121.081047,214.871674 
	C120.092407,215.486542 119.599632,215.781448 119.079468,216.056732 
	C119.052086,216.037109 118.997337,215.997864 118.997330,215.997864 
z"/>
<path fill="#9182A3" opacity="1.000000" stroke="none" 
	d="
M98.014381,179.002686 
	C96.561928,180.606842 95.109474,182.210999 93.310890,183.895752 
	C92.964760,183.976334 92.899727,183.927811 92.931351,183.610260 
	C92.976707,182.867310 92.990448,182.441925 93.004181,182.016525 
	C93.816856,181.094254 94.629524,180.171982 96.060745,179.128937 
	C97.124329,179.006348 97.569359,179.004517 98.014381,179.002686 
z"/>
<path fill="#9182A3" opacity="1.000000" stroke="none" 
	d="
M127.548965,200.780106 
	C127.616783,201.957245 127.411453,203.359421 127.257599,205.186859 
	C127.065636,206.278748 126.822189,206.945358 126.096649,207.897644 
	C125.110870,208.480362 124.607185,208.777390 124.103500,209.074432 
	C124.103508,209.074432 124.045143,209.031723 124.016029,209.010147 
	C125.083214,206.327423 126.179504,203.666275 127.548965,200.780106 
z"/>
<path fill="#9182A3" opacity="1.000000" stroke="none" 
	d="
M74.386902,209.452332 
	C73.510941,211.786499 72.327553,214.179352 70.818932,216.407211 
	C71.688957,213.998489 72.884209,211.754745 74.386902,209.452332 
z"/>
<path fill="#8B7D9B" opacity="1.000000" stroke="none" 
	d="
M98.327927,178.828110 
	C97.569359,179.004517 97.124329,179.006348 96.345650,179.005295 
	C97.803665,177.853943 99.595329,176.705475 101.716110,175.600708 
	C102.024757,176.036880 102.004295,176.429337 101.980476,177.009155 
	C100.865242,177.682190 99.753357,178.167862 98.327927,178.828110 
z"/>
<path fill="#9182A3" opacity="1.000000" stroke="none" 
	d="
M82.338531,283.735535 
	C81.738518,284.002869 81.373489,284.013458 80.833900,284.041565 
	C81.195404,282.716125 81.731468,281.373199 82.642563,280.320068 
	C83.076828,280.913513 83.136078,281.217224 83.195320,281.520905 
	C82.988045,282.173523 82.780777,282.826172 82.338531,283.735535 
z"/>
<path fill="#8B7D9B" opacity="1.000000" stroke="none" 
	d="
M89.998817,187.996902 
	C89.754601,188.513275 89.510384,189.029633 88.845383,189.897064 
	C87.924263,190.499802 87.423927,190.751480 86.923599,191.003159 
	C87.749786,189.431595 88.575974,187.860031 89.707062,186.488831 
	C90.007568,187.125107 90.003189,187.561005 89.998817,187.996902 
z"/>
<path fill="#9182A3" opacity="1.000000" stroke="none" 
	d="
M69.892326,216.744965 
	C69.532768,218.316879 68.857201,219.953598 67.840240,221.434021 
	C68.191345,219.788406 68.883835,218.299103 69.892326,216.744965 
z"/>
<path fill="#9182A3" opacity="1.000000" stroke="none" 
	d="
M77.394150,204.457535 
	C77.177116,205.795609 76.664093,207.194260 75.790695,208.446625 
	C75.986259,207.039581 76.542206,205.778854 77.394150,204.457535 
z"/>
<path fill="#9182A3" opacity="1.000000" stroke="none" 
	d="
M90.317413,187.893555 
	C90.003189,187.561005 90.007568,187.125107 90.010696,186.362274 
	C90.046829,185.692734 90.198753,185.412170 90.949165,184.987213 
	C91.921982,184.496475 92.410858,184.212143 92.899734,183.927826 
	C92.899727,183.927811 92.964760,183.976334 92.997139,184.001053 
	C92.231682,185.280579 91.433838,186.535400 90.317413,187.893555 
z"/>
<path fill="#9182A3" opacity="1.000000" stroke="none" 
	d="
M116.057419,219.992340 
	C116.825737,218.730850 117.594055,217.469376 118.679855,216.102875 
	C118.997337,215.997864 119.052086,216.037109 119.045868,216.373764 
	C119.025787,217.135834 119.011909,217.561234 118.998039,217.986649 
	C118.956596,218.291153 118.822479,218.547089 118.121124,218.964172 
	C117.116844,219.446701 116.587135,219.719528 116.057419,219.992340 
z"/>
<path fill="#9182A3" opacity="1.000000" stroke="none" 
	d="
M86.716972,191.137390 
	C87.423927,190.751480 87.924263,190.499802 88.677872,190.130066 
	C88.173569,191.276611 87.415985,192.541229 86.310287,193.890030 
	C85.962166,193.974228 85.899300,193.927399 85.931252,193.624725 
	C85.977852,192.916489 85.992508,192.510956 86.007164,192.105408 
	C86.087685,191.774841 86.255417,191.496902 86.716972,191.137390 
z"/>
<path fill="#9182A3" opacity="1.000000" stroke="none" 
	d="
M85.993378,193.997925 
	C85.229637,195.278625 84.434692,196.535629 83.319466,197.576202 
	C83.002113,196.942291 83.005043,196.524811 83.007965,196.107330 
	C83.076912,195.778076 83.236145,195.500641 83.958015,195.040588 
	C84.920013,194.513229 85.409653,194.220322 85.899300,193.927399 
	C85.899300,193.927399 85.962166,193.974228 85.993378,193.997925 
z"/>
<path fill="#9182A3" opacity="1.000000" stroke="none" 
	d="
M66.919197,221.718048 
	C66.811356,222.835510 66.382515,224.001480 65.584488,225.144562 
	C65.676277,224.003311 66.137238,222.884949 66.919197,221.718048 
z"/>
<path fill="#9182A3" opacity="1.000000" stroke="none" 
	d="
M104.055618,238.992752 
	C104.745850,237.927414 105.436073,236.862076 106.471832,235.837173 
	C106.715881,236.457230 106.614395,237.036835 106.014236,237.916504 
	C105.028900,238.475296 104.542259,238.734024 104.055618,238.992752 
z"/>
<path fill="#8B7D9B" opacity="1.000000" stroke="none" 
	d="
M103.922775,239.287903 
	C104.542259,238.734024 105.028900,238.475296 105.771912,238.113708 
	C105.530960,238.947006 105.033653,239.883163 104.207077,240.825104 
	C103.848511,240.414932 103.819221,239.998993 103.922775,239.287903 
z"/>
<path fill="#8B7D9B" opacity="1.000000" stroke="none" 
	d="
M92.931351,183.610260 
	C92.410858,184.212143 91.921982,184.496475 91.165939,184.874741 
	C91.401222,184.058884 91.903671,183.149109 92.705154,182.127930 
	C92.990448,182.441925 92.976707,182.867310 92.931351,183.610260 
z"/>
<path fill="#8B7D9B" opacity="1.000000" stroke="none" 
	d="
M83.470520,281.313477 
	C83.136078,281.217224 83.076828,280.913513 82.925674,280.153564 
	C82.833771,279.697266 82.905235,279.325409 83.239166,279.039185 
	C84.063744,278.501190 84.554405,278.249451 85.045067,277.997742 
	C84.611954,279.033844 84.178833,280.069946 83.470520,281.313477 
z"/>
<path fill="#9182A3" opacity="1.000000" stroke="none" 
	d="
M85.170410,277.909668 
	C84.554405,278.249451 84.063744,278.501190 83.324181,278.869995 
	C83.480812,278.009491 83.886353,277.031921 84.571480,275.875275 
	C84.919090,276.000122 84.987129,276.304077 85.169029,277.061707 
	C85.282890,277.515411 85.295746,277.821564 85.170410,277.909668 
z"/>
<path fill="#8B7D9B" opacity="1.000000" stroke="none" 
	d="
M85.931252,193.624725 
	C85.409653,194.220322 84.920013,194.513229 84.164055,194.911652 
	C84.404228,194.121063 84.910721,193.224960 85.712189,192.217133 
	C85.992508,192.510956 85.977852,192.916489 85.931252,193.624725 
z"/>
<path fill="#9182A3" opacity="1.000000" stroke="none" 
	d="
M57.054764,239.691330 
	C57.118320,240.749359 56.925320,241.813736 56.334206,242.591858 
	C55.867908,241.986389 55.799728,241.667206 55.731552,241.348022 
	C56.087101,240.797913 56.442654,240.247787 57.054764,239.691330 
z"/>
<path fill="#8B7D9B" opacity="1.000000" stroke="none" 
	d="
M124.069641,209.384735 
	C124.607185,208.777390 125.110870,208.480362 125.889381,208.079025 
	C125.638893,208.887238 125.113564,209.799728 124.284119,210.827576 
	C123.998596,210.526978 124.017189,210.111023 124.069641,209.384735 
z"/>
<path fill="#8B7D9B" opacity="1.000000" stroke="none" 
	d="
M107.206482,235.825714 
	C106.848740,235.421768 106.820084,235.003784 107.173317,234.173355 
	C108.046555,233.506516 108.537903,233.252121 109.029266,232.997726 
	C108.531372,233.935715 108.033478,234.873703 107.206482,235.825714 
z"/>
<path fill="#9182A3" opacity="1.000000" stroke="none" 
	d="
M109.242264,232.787781 
	C108.537903,233.252121 108.046555,233.506516 107.304047,233.875854 
	C107.639275,233.065918 108.225655,232.141022 109.154617,231.331512 
	C109.483223,231.823883 109.469254,232.200851 109.242264,232.787781 
z"/>
<path fill="#8B7D9B" opacity="1.000000" stroke="none" 
	d="
M115.920914,220.285355 
	C116.587135,219.719528 117.116844,219.446701 117.928642,219.071243 
	C117.652138,219.900497 117.093536,220.832367 116.202896,221.793671 
	C115.842041,221.408173 115.813225,220.993271 115.920914,220.285355 
z"/>
<path fill="#8B7D9B" opacity="1.000000" stroke="none" 
	d="
M119.300735,217.866470 
	C119.011909,217.561234 119.025787,217.135834 119.073257,216.393372 
	C119.599632,215.781448 120.092407,215.486542 120.853554,215.086151 
	C120.615761,215.902542 120.109596,216.824417 119.300735,217.866470 
z"/>
<path fill="#8B7D9B" opacity="1.000000" stroke="none" 
	d="
M110.190102,230.805328 
	C110.162651,230.116409 110.452461,229.421402 111.054550,228.720245 
	C111.080338,229.409119 110.793846,230.104172 110.190102,230.805328 
z"/>
<path fill="#8B7D9B" opacity="1.000000" stroke="none" 
	d="
M55.464706,241.577240 
	C55.799728,241.667206 55.867908,241.986389 56.030708,242.787354 
	C55.858292,243.641403 55.591251,244.013702 55.087402,244.357895 
	C54.966347,243.488678 55.082104,242.647583 55.464706,241.577240 
z"/>
<path fill="#8B7D9B" opacity="1.000000" stroke="none" 
	d="
M102.204956,243.836060 
	C102.161835,243.135147 102.439690,242.434982 103.029427,241.721970 
	C103.069519,242.418350 102.797722,243.127594 102.204956,243.836060 
z"/>
<path fill="#8B7D9B" opacity="1.000000" stroke="none" 
	d="
M112.190643,227.813782 
	C112.160843,227.125336 112.447067,226.428253 113.045860,225.721893 
	C113.074509,226.410141 112.790596,227.107635 112.190643,227.813782 
z"/>
<path fill="#8B7D9B" opacity="1.000000" stroke="none" 
	d="
M114.181458,224.793381 
	C114.162773,224.111038 114.459579,223.414978 115.070580,222.718323 
	C115.088837,223.405045 114.792885,224.092346 114.181458,224.793381 
z"/>
<path fill="#8B7D9B" opacity="1.000000" stroke="none" 
	d="
M82.723923,196.212769 
	C83.005043,196.524811 83.002113,196.942291 82.998672,197.672852 
	C82.707581,198.149811 82.417000,198.313660 81.887238,198.393829 
	C81.911995,197.646149 82.175934,196.982178 82.723923,196.212769 
z"/>
<path fill="#9182A3" opacity="1.000000" stroke="none" 
	d="
M79.073044,201.958038 
	C79.627213,202.207275 79.931511,202.445602 80.235809,202.683945 
	C79.816223,202.991257 79.396645,203.298569 78.709412,203.422638 
	C78.568886,202.808624 78.696037,202.377869 79.073044,201.958038 
z"/>
<path fill="#8B7D9B" opacity="1.000000" stroke="none" 
	d="
M105.756958,174.572784 
	C105.489380,174.957428 104.960388,175.275116 104.269440,175.442352 
	C104.570175,175.029877 105.032860,174.767838 105.756958,174.572784 
z"/>
<path fill="#9182A3" opacity="1.000000" stroke="none" 
	d="
M75.572800,296.861023 
	C75.188782,298.385834 74.515434,300.099365 73.520065,301.909790 
	C73.893188,300.354401 74.588333,298.702057 75.572800,296.861023 
z"/>
<path fill="#9182A3" opacity="1.000000" stroke="none" 
	d="
M126.558144,189.289948 
	C127.042549,189.629990 127.441444,190.256012 127.813705,191.197510 
	C127.348938,190.867310 126.910782,190.221603 126.558144,189.289948 
z"/>
<path fill="#9182A3" opacity="1.000000" stroke="none" 
	d="
M86.601707,270.818542 
	C86.630013,271.348511 86.406471,272.038452 85.945297,272.859985 
	C85.921738,272.320587 86.135803,271.649567 86.601707,270.818542 
z"/>
<path fill="#9182A3" opacity="1.000000" stroke="none" 
	d="
M79.608963,286.835510 
	C79.625641,287.365601 79.389687,288.053925 78.911591,288.868713 
	C78.898399,288.328033 79.127373,287.660858 79.608963,286.835510 
z"/>
<path fill="#9182A3" opacity="1.000000" stroke="none" 
	d="
M77.609970,291.838074 
	C77.618683,292.371307 77.373802,293.061462 76.882019,293.874878 
	C76.875534,293.330414 77.115952,292.662689 77.609970,291.838074 
z"/>
<path fill="#E4D3FE" opacity="1.000000" stroke="none" 
	d="
M530.159973,65.230446 
	C521.461304,63.307671 513.297913,60.793270 504.945557,59.586174 
	C485.414795,56.763546 465.819244,54.326416 446.197144,52.226433 
	C437.125977,51.255630 427.918640,50.948341 418.794952,51.184925 
	C383.233154,52.107067 348.310364,57.192783 314.308289,68.004608 
	C288.684296,76.152397 263.863495,86.185890 240.571960,99.671921 
	C220.106293,111.521751 200.509125,124.695900 182.646469,140.285583 
	C175.763107,146.293060 168.995651,152.436447 162.271408,158.622299 
	C154.260071,165.992203 140.924469,164.313309 135.164032,158.775696 
	C127.559242,151.465073 127.241768,139.599548 135.546524,131.984283 
	C149.136124,119.522972 163.131058,107.437943 177.617630,96.036079 
	C199.000565,79.206329 222.443985,65.510124 246.945557,53.722649 
	C281.778870,36.964695 318.339386,25.466743 356.417572,18.861378 
	C387.524780,13.465261 418.969055,12.458778 450.363434,13.915442 
	C479.757324,15.279284 508.781494,20.204641 537.159729,28.312569 
	C547.918518,31.386440 552.852600,39.280594 551.226807,50.336235 
	C550.173218,57.500717 542.699158,66.287727 530.159973,65.230446 
z"/>
</svg>